<svg width="192" height="60" viewBox="0 0 192 60" fill="none" xmlns="http://www.w3.org/2000/svg">
<rect width="192" height="60" fill="#F19FB9"/>
<path d="M49.3984 27.004H54.1024C54.5784 27.004 55.0124 27.046 55.4044 27.13C55.7964 27.214 56.1324 27.354 56.4124 27.55C56.6924 27.7367 56.9071 27.9887 57.0564 28.306C57.2151 28.6233 57.2944 29.0153 57.2944 29.482C57.2944 29.986 57.1778 30.406 56.9444 30.742C56.7204 31.078 56.3844 31.3533 55.9364 31.568C56.5524 31.7453 57.0098 32.058 57.3084 32.506C57.6164 32.9447 57.7704 33.4767 57.7704 34.102C57.7704 34.606 57.6724 35.0447 57.4764 35.418C57.2804 35.782 57.0144 36.0807 56.6784 36.314C56.3518 36.5473 55.9738 36.72 55.5444 36.832C55.1244 36.944 54.6904 37 54.2424 37H49.3984V27.004ZM53.9484 35.292C54.1631 35.292 54.3684 35.2733 54.5644 35.236C54.7604 35.1893 54.9331 35.1193 55.0824 35.026C55.2318 34.9233 55.3484 34.788 55.4324 34.62C55.5258 34.452 55.5724 34.2373 55.5724 33.976C55.5724 33.4627 55.4278 33.0987 55.1384 32.884C54.8491 32.66 54.4664 32.548 53.9904 32.548H51.5964V35.292H53.9484ZM53.8224 31.05C54.2144 31.05 54.5364 30.9567 54.7884 30.77C55.0404 30.5833 55.1664 30.28 55.1664 29.86C55.1664 29.6267 55.1244 29.4353 55.0404 29.286C54.9564 29.1367 54.8444 29.02 54.7044 28.936C54.5644 28.852 54.4011 28.796 54.2144 28.768C54.0371 28.7307 53.8504 28.712 53.6544 28.712H51.5964V31.05H53.8224ZM65.9523 27.004H69.0463L71.3843 33.878H71.4123L73.6243 27.004H76.7183V37H74.6603V29.916H74.6323L72.1823 37H70.4883L68.0383 29.986H68.0103V37H65.9523V27.004ZM82.7835 27.004H85.0375L88.7755 37H86.4935L85.7375 34.774H81.9995L81.2155 37H79.0035L82.7835 27.004ZM85.1635 33.136L83.9035 29.468H83.8755L82.5735 33.136H85.1635ZM91.1075 27.004H98.0515V28.852H93.3055V37H91.1075V27.004ZM103.207 27.004H105.461L109.199 37H106.917L106.161 34.774H102.423L101.639 37H99.4265L103.207 27.004ZM105.587 33.136L104.327 29.468H104.299L102.997 33.136H105.587ZM115.115 37.224C113.743 37.224 112.683 36.9113 111.937 36.286C111.19 35.6513 110.807 34.7693 110.789 33.64H112.959C112.968 33.976 113.029 34.2653 113.141 34.508C113.262 34.7507 113.416 34.9513 113.603 35.11C113.799 35.2593 114.023 35.3713 114.275 35.446C114.536 35.5113 114.816 35.544 115.115 35.544C115.628 35.544 116.043 35.39 116.361 35.082C116.678 34.7647 116.837 34.3773 116.837 33.92C116.837 33.64 116.785 33.4113 116.683 33.234C116.58 33.0473 116.44 32.9027 116.263 32.8C116.085 32.688 115.885 32.6133 115.661 32.576C115.437 32.5387 115.203 32.52 114.961 32.52H114.205V31.036C114.289 31.0453 114.391 31.05 114.513 31.05C114.634 31.05 114.727 31.05 114.793 31.05C115.997 31.05 116.599 30.5973 116.599 29.692C116.599 29.3 116.459 28.9967 116.179 28.782C115.908 28.5673 115.549 28.46 115.101 28.46C114.559 28.46 114.125 28.5907 113.799 28.852C113.481 29.1133 113.299 29.4867 113.253 29.972H111.181C111.19 29.412 111.302 28.9313 111.517 28.53C111.731 28.1287 112.016 27.7973 112.371 27.536C112.735 27.2747 113.15 27.0833 113.617 26.962C114.093 26.8313 114.592 26.766 115.115 26.766C115.619 26.766 116.085 26.836 116.515 26.976C116.953 27.1067 117.327 27.2933 117.635 27.536C117.952 27.7787 118.199 28.0727 118.377 28.418C118.563 28.754 118.657 29.132 118.657 29.552C118.657 30.056 118.517 30.49 118.237 30.854C117.957 31.218 117.593 31.4513 117.145 31.554C117.406 31.6007 117.653 31.6893 117.887 31.82C118.12 31.9507 118.321 32.1187 118.489 32.324C118.657 32.52 118.787 32.7533 118.881 33.024C118.983 33.2947 119.035 33.5887 119.035 33.906C119.035 34.3913 118.932 34.8393 118.727 35.25C118.531 35.6513 118.255 36.0013 117.901 36.3C117.555 36.5893 117.145 36.818 116.669 36.986C116.193 37.1447 115.675 37.224 115.115 37.224ZM121.925 27.004H124.109V33.934H124.151L127.959 27.004H130.423V37H128.239V30.056H128.197L124.389 37H121.925V27.004ZM133.757 27.004H135.955V30.84H140.001V27.004H142.199V37H140.001V32.688H135.955V37H133.757V27.004Z" fill="white"/>
</svg>
