<svg width="31" height="30" viewBox="0 0 31 30" fill="none" xmlns="http://www.w3.org/2000/svg">
<circle cx="15.5" cy="15" r="15" fill="black"/>
<path d="M15.855 13.4741C16.4822 13.4741 17.0758 13.6197 17.6358 13.9109C18.207 14.2021 18.6662 14.6333 19.0134 15.2045C19.3606 15.7645 19.5342 16.4253 19.5342 17.1869C19.5342 17.9485 19.3494 18.6317 18.9798 19.2365C18.6102 19.8301 18.1174 20.2949 17.5014 20.6309C16.8854 20.9669 16.219 21.1349 15.5022 21.1349C14.7742 21.1349 14.1078 20.9781 13.503 20.6645C12.9094 20.3509 12.4334 19.9309 12.075 19.4045C11.7166 18.8669 11.515 18.2789 11.4702 17.6405L13.1502 17.4725C13.1838 17.8197 13.3014 18.1557 13.503 18.4805C13.7158 18.7941 13.9958 19.0461 14.343 19.2365C14.6902 19.4269 15.0766 19.5221 15.5022 19.5221C15.9278 19.5221 16.3254 19.4213 16.695 19.2197C17.0646 19.0181 17.3614 18.7437 17.5854 18.3965C17.8094 18.0493 17.9214 17.6629 17.9214 17.2373C17.9214 16.6101 17.7198 16.0949 17.3166 15.6917C16.9134 15.2885 16.3926 15.0869 15.7542 15.0869C15.295 15.0869 14.8414 15.2045 14.3934 15.4397C13.9566 15.6749 13.615 16.0053 13.3686 16.4309H11.7222L12.7302 9.71089H18.459V11.3237H14.1078L13.671 14.2133C13.951 13.9893 14.2926 13.8101 14.6958 13.6757C15.099 13.5413 15.4854 13.4741 15.855 13.4741Z" fill="white"/>
</svg>
