<svg width="31" height="30" viewBox="0 0 31 30" fill="none" xmlns="http://www.w3.org/2000/svg">
<circle cx="15.5" cy="15" r="15" fill="black"/>
<path d="M11.5827 13.0709C11.6275 12.4549 11.8067 11.8837 12.1203 11.3573C12.4339 10.8197 12.8651 10.3885 13.4139 10.0637C13.9739 9.73889 14.6235 9.57649 15.3627 9.57649C16.0683 9.57649 16.7067 9.73329 17.2779 10.0469C17.8603 10.3493 18.3139 10.7805 18.6387 11.3405C18.9635 11.8893 19.1259 12.5109 19.1259 13.2053C19.1259 13.8997 18.9243 14.5605 18.5211 15.1877C18.1291 15.8037 17.4907 16.5765 16.6059 17.5061L14.8419 19.3877H19.6635V21.0005H11.3307L15.4635 16.4645C16.1579 15.7029 16.6731 15.0925 17.0091 14.6333C17.3451 14.1629 17.5131 13.7205 17.5131 13.3061C17.5131 12.6677 17.3115 12.1581 16.9083 11.7773C16.5163 11.3853 16.0011 11.1893 15.3627 11.1893C14.7467 11.1893 14.2483 11.3965 13.8675 11.8109C13.4867 12.2141 13.2739 12.7237 13.2291 13.3397L11.5827 13.0709Z" fill="white"/>
</svg>
