<svg width="31" height="30" viewBox="0 0 31 30" fill="none" xmlns="http://www.w3.org/2000/svg">
<circle cx="15.5" cy="15" r="15" fill="black"/>
<path d="M17.9214 15.0365C18.3582 15.1821 18.7334 15.4901 19.047 15.9605C19.3718 16.4309 19.5342 16.9461 19.5342 17.5061C19.5342 18.1109 19.3942 18.6933 19.1142 19.2533C18.8342 19.8021 18.3918 20.2557 17.787 20.6141C17.1934 20.9613 16.4318 21.1349 15.5022 21.1349C14.3038 21.1349 13.3518 20.8045 12.6462 20.1437C11.9406 19.4829 11.5486 18.6037 11.4702 17.5061L13.083 17.2373C13.1614 17.9317 13.4022 18.4861 13.8054 18.9005C14.2086 19.3149 14.8078 19.5221 15.603 19.5221C16.3198 19.5221 16.8854 19.3429 17.2998 18.9845C17.7142 18.6261 17.9214 18.1781 17.9214 17.6405C17.9214 17.0021 17.6694 16.5765 17.1654 16.3637C16.6726 16.1397 15.939 16.0277 14.9646 16.0277V14.4149C15.6478 14.4037 16.2638 14.2805 16.8126 14.0453C17.3726 13.8101 17.6526 13.3957 17.6526 12.8021C17.6526 12.5445 17.5742 12.2925 17.4174 12.0461C17.2718 11.7885 17.0422 11.5813 16.7286 11.4245C16.4262 11.2677 16.051 11.1893 15.603 11.1893C14.819 11.1893 14.259 11.3853 13.923 11.7773C13.5982 12.1693 13.4022 12.6901 13.335 13.3397L11.7222 13.0709C11.7782 12.3989 11.9742 11.7997 12.3102 11.2733C12.6462 10.7469 13.0886 10.3325 13.6374 10.0301C14.1974 9.72769 14.819 9.57649 15.5022 9.57649C16.3198 9.57649 17.0086 9.73889 17.5686 10.0637C18.1398 10.3885 18.5654 10.7917 18.8454 11.2733C19.1254 11.7437 19.2654 12.2085 19.2654 12.6677C19.2654 13.7205 18.8174 14.5101 17.9214 15.0365Z" fill="white"/>
</svg>
