<svg width="30" height="30" viewBox="0 0 30 30" fill="none" xmlns="http://www.w3.org/2000/svg">
<circle cx="15" cy="15" r="15" fill="#F19FB9"/>
<path d="M15 11.9196C15.5357 11.9196 16.0446 12.0804 16.5268 12.3482C17.0089 12.6161 17.3839 12.9911 17.6518 13.4732C17.9196 13.9554 18.0804 14.4643 18.0804 15C18.0804 15.5625 17.9196 16.0714 17.6518 16.5536C17.3839 17.0357 17.0089 17.4107 16.5268 17.6786C16.0446 17.9464 15.5357 18.0804 15 18.0804C14.4375 18.0804 13.9286 17.9464 13.4464 17.6786C12.9643 17.4107 12.5893 17.0357 12.3214 16.5536C12.0536 16.0714 11.9196 15.5625 11.9196 15C11.9196 14.4643 12.0536 13.9554 12.3214 13.4732C12.5893 12.9911 12.9643 12.6161 13.4464 12.3482C13.9286 12.0804 14.4375 11.9196 15 11.9196ZM15 17.0089C15.5357 17.0089 16.0179 16.8214 16.4196 16.4196C16.7946 16.0446 17.0089 15.5625 17.0089 15C17.0089 14.4643 16.7946 13.9821 16.4196 13.5804C16.0179 13.2054 15.5357 12.9911 15 12.9911C14.4375 12.9911 13.9554 13.2054 13.5804 13.5804C13.1786 13.9821 12.9911 14.4643 12.9911 15C12.9911 15.5625 13.1786 16.0446 13.5804 16.4196C13.9554 16.8214 14.4375 17.0089 15 17.0089ZM18.9375 11.7857C18.9375 11.5982 18.8571 11.4375 18.7232 11.2768C18.5625 11.1429 18.4018 11.0625 18.2143 11.0625C18 11.0625 17.8393 11.1429 17.7054 11.2768C17.5446 11.4375 17.4911 11.5982 17.4911 11.7857C17.4911 12 17.5446 12.1607 17.7054 12.2946C17.8393 12.4554 18 12.5089 18.2143 12.5089C18.4018 12.5089 18.5625 12.4554 18.6964 12.2946C18.8304 12.1607 18.9107 12 18.9375 11.7857ZM20.9732 12.5089C20.9732 13.0179 21 13.8482 21 15C21 16.1786 20.9732 17.0089 20.9464 17.5179C20.9196 18.0268 20.8393 18.4554 20.7321 18.8304C20.5714 19.2857 20.3036 19.6875 19.9821 20.0089C19.6607 20.3304 19.2589 20.5714 18.8304 20.7321C18.4554 20.8661 18 20.9464 17.4911 20.9732C16.9821 21 16.1518 21 15 21C13.8214 21 12.9911 21 12.4821 20.9732C11.9732 20.9464 11.5446 20.8661 11.1696 20.7054C10.7143 20.5714 10.3125 20.3304 9.99107 20.0089C9.66964 19.6875 9.42857 19.2857 9.26786 18.8304C9.13393 18.4554 9.05357 18.0268 9.02679 17.5179C9 17.0089 9 16.1786 9 15C9 13.8482 9 13.0179 9.02679 12.5089C9.05357 12 9.13393 11.5446 9.26786 11.1696C9.42857 10.7411 9.66964 10.3393 9.99107 10.0179C10.3125 9.69643 10.7143 9.42857 11.1696 9.26786C11.5446 9.16071 11.9732 9.08036 12.4821 9.05357C12.9911 9.02679 13.8214 9 15 9C16.1518 9 16.9821 9.02679 17.4911 9.05357C18 9.08036 18.4554 9.16071 18.8304 9.26786C19.2589 9.42857 19.6607 9.69643 19.9821 10.0179C20.3036 10.3393 20.5714 10.7411 20.7321 11.1696C20.8393 11.5446 20.9196 12 20.9732 12.5089ZM19.6875 18.5357C19.7946 18.2411 19.8482 17.7589 19.9018 17.0893C19.9018 16.7143 19.9286 16.1518 19.9286 15.4286V14.5714C19.9286 13.8482 19.9018 13.2857 19.9018 12.9107C19.8482 12.2411 19.7946 11.7589 19.6875 11.4643C19.4732 10.9286 19.0714 10.5268 18.5357 10.3125C18.2411 10.2054 17.7589 10.1518 17.0893 10.0982C16.6875 10.0982 16.125 10.0714 15.4286 10.0714H14.5714C13.8482 10.0714 13.2857 10.0982 12.9107 10.0982C12.2411 10.1518 11.7589 10.2054 11.4643 10.3125C10.9018 10.5268 10.5268 10.9286 10.3125 11.4643C10.2054 11.7589 10.125 12.2411 10.0982 12.9107C10.0714 13.3125 10.0714 13.875 10.0714 14.5714V15.4286C10.0714 16.1518 10.0714 16.7143 10.0982 17.0893C10.125 17.7589 10.2054 18.2411 10.3125 18.5357C10.5268 19.0982 10.9286 19.4732 11.4643 19.6875C11.7589 19.7946 12.2411 19.875 12.9107 19.9018C13.2857 19.9286 13.8482 19.9286 14.5714 19.9286H15.4286C16.1518 19.9286 16.7143 19.9286 17.0893 19.9018C17.7589 19.875 18.2411 19.7946 18.5357 19.6875C19.0714 19.4732 19.4732 19.0714 19.6875 18.5357Z" fill="white"/>
</svg>
