<svg width="30" height="30" viewBox="0 0 30 30" fill="none" xmlns="http://www.w3.org/2000/svg">
<circle cx="15" cy="15" r="15" fill="#F19FB9"/>
<path d="M21.7179 11.5625C21.8205 12.0312 21.9231 12.7604 21.9744 13.6979L22 15L21.9744 16.3021C21.9231 17.2917 21.8205 17.9948 21.7179 18.4635C21.6154 18.776 21.4615 19.0365 21.2564 19.2448C21.0256 19.4792 20.7692 19.6354 20.4615 19.7135C20 19.8438 18.9744 19.9219 17.3333 19.974L15 20L12.6667 19.974C11.0256 19.9219 9.97436 19.8438 9.53846 19.7135C9.23077 19.6354 8.94872 19.4792 8.74359 19.2448C8.51282 19.0365 8.35897 18.776 8.28205 18.4635C8.15385 17.9948 8.07692 17.2917 8.02564 16.3021L8 15C8 14.6354 8 14.1927 8.02564 13.6979C8.07692 12.7604 8.15385 12.0312 8.28205 11.5625C8.35897 11.25 8.51282 10.9896 8.74359 10.7552C8.94872 10.5469 9.23077 10.3906 9.53846 10.2865C9.97436 10.1823 11.0256 10.0781 12.6667 10.026L15 10L17.3333 10.026C18.9744 10.0781 20 10.1823 20.4615 10.2865C20.7692 10.3906 21.0256 10.5469 21.2564 10.7552C21.4615 10.9896 21.6154 11.25 21.7179 11.5625ZM13.5641 17.1354L17.2308 15L13.5641 12.8906V17.1354Z" fill="white"/>
</svg>
