<svg width="151" height="17" viewBox="0 0 151 17" fill="none" xmlns="http://www.w3.org/2000/svg">
<path opacity="0.2" d="M6.77799 16.7381C5.579 16.5476 4.55129 16.3095 3.71933 16C2.88738 15.6905 2.22671 15.3333 1.73732 14.9524C1.24793 14.5476 0.880895 14.1429 0.611732 13.7143C0.367039 13.2857 0.195754 12.8571 0.122346 12.4524C0.0489386 12.0238 0 11.619 0 11.2857V11.119H10.0813C10.0813 11.2857 10.1058 11.4762 10.1792 11.6905C10.2282 11.9048 10.3505 12.0952 10.5463 12.2619C10.7175 12.4286 10.9867 12.5952 11.3538 12.7143C11.6963 12.8333 12.1857 12.881 12.773 12.881C13.2624 12.881 13.6783 12.8571 14.0209 12.7857C14.3635 12.7143 14.6082 12.6429 14.8039 12.5238C14.9997 12.4286 15.1465 12.3095 15.2199 12.1667C15.2933 12.0238 15.3422 11.881 15.3422 11.7381V11.6667C15.3422 11.5238 15.3178 11.4048 15.2688 11.2619C15.2199 11.119 15.0731 11.0238 14.8773 10.9048C14.6571 10.8095 14.3635 10.7143 13.9475 10.6429C13.5315 10.5714 12.9687 10.5238 12.2346 10.5L8.6866 10.381C6.94928 10.3333 5.53006 10.1429 4.45341 9.83333C3.37676 9.52381 2.52034 9.14286 1.9086 8.66667C1.29687 8.19048 0.880894 7.66667 0.660671 7.04762C0.440447 6.45238 0.318101 5.83333 0.318101 5.16667V4.97619C0.318101 4.21429 0.489386 3.52381 0.831956 2.90476C1.17453 2.28571 1.76179 1.7619 2.59374 1.33333C3.4257 0.904762 4.52682 0.571429 5.8971 0.333333C7.26738 0.0952381 8.90682 0 10.9622 0H13.8252C16.0763 0 17.936 0.142857 19.3797 0.404762C20.8234 0.666667 21.949 1.04762 22.7809 1.52381C23.6129 2 24.1757 2.54762 24.4938 3.16667C24.8119 3.78571 24.9587 4.45238 24.9587 5.16667V5.28571H15.0976C15.0731 5.14286 15.0486 5 14.9752 4.85714C14.9263 4.71429 14.8039 4.57143 14.6082 4.42857C14.4369 4.28571 14.1677 4.19048 13.8496 4.09524C13.507 4 13.0666 3.95238 12.5038 3.95238C11.99 3.95238 11.574 3.97619 11.2559 4C10.9378 4.04762 10.6931 4.09524 10.4973 4.16667C10.326 4.2381 10.2037 4.33333 10.1303 4.45238C10.0813 4.57143 10.0324 4.69048 10.0324 4.80952V4.85714C10.0324 5.02381 10.0813 5.14286 10.1792 5.2619C10.2771 5.38095 10.4484 5.47619 10.6931 5.54762C10.9378 5.61905 11.2559 5.69048 11.6963 5.7381C12.1123 5.78571 12.6506 5.83333 13.3113 5.83333L16.7125 5.92857C18.352 5.97619 19.7467 6.09524 20.8723 6.33333C21.9979 6.54762 22.9033 6.88095 23.6129 7.28571C24.3225 7.69048 24.8119 8.21429 25.13 8.80952C25.4481 9.40476 25.5949 10.1429 25.5949 10.9762V11.2857C25.5949 12.0238 25.4481 12.7381 25.1544 13.4048C24.8608 14.0952 24.2735 14.6905 23.4416 15.2381C22.6096 15.7857 21.4351 16.2143 19.9425 16.5238C18.4498 16.8571 16.4923 17 14.0943 17H11.1335C9.42068 17 7.97699 16.9048 6.77799 16.7381ZM34.5017 0.285714V5.71429H43.5064V0.285714H52.0951V16.6667H43.5064V10.8333H34.5017V16.6667H25.913V0.285714H34.5017ZM109.72 4.85714H97.8772V6.14286H109.573V10.6429H97.8772V12.0476H109.794V16.6667H89.4108V0.285714H109.72V4.85714ZM116.621 16.6667V0.285714H125.209V16.6667H116.621ZM132.183 16.7381C130.984 16.5476 129.956 16.3095 129.124 16C128.292 15.6905 127.632 15.3333 127.142 14.9524C126.653 14.5476 126.286 14.1429 126.017 13.7143C125.772 13.2857 125.601 12.8571 125.527 12.4524C125.454 12.0238 125.405 11.6429 125.405 11.2857V11.119H135.486C135.486 11.2857 135.511 11.4762 135.584 11.6905C135.633 11.9048 135.756 12.0952 135.951 12.2619C136.123 12.4286 136.392 12.5952 136.759 12.7143C137.101 12.8333 137.591 12.881 138.178 12.881C138.667 12.881 139.083 12.8571 139.426 12.7857C139.769 12.7143 140.013 12.6429 140.209 12.5238C140.405 12.4286 140.552 12.3095 140.625 12.1667C140.698 12.0238 140.747 11.881 140.747 11.7381V11.6667C140.747 11.5238 140.723 11.4048 140.674 11.2619C140.625 11.119 140.478 11.0238 140.282 10.9048C140.062 10.8095 139.769 10.7143 139.353 10.6429C138.937 10.5714 138.374 10.5238 137.64 10.5L134.092 10.381C132.354 10.3333 130.935 10.1429 129.859 9.83333C128.782 9.52381 127.925 9.14286 127.314 8.66667C126.702 8.19048 126.286 7.66667 126.066 7.04762C125.846 6.45238 125.723 5.83333 125.723 5.16667V4.97619C125.723 4.21429 125.895 3.52381 126.237 2.90476C126.58 2.28571 127.167 1.7619 127.999 1.33333C128.831 0.904762 129.932 0.571429 131.302 0.333333C132.624 0.119048 134.336 0 136.367 0H139.23C141.481 0 143.341 0.142857 144.785 0.404762C146.229 0.666667 147.354 1.04762 148.186 1.52381C149.018 2 149.581 2.54762 149.899 3.16667C150.217 3.78571 150.364 4.45238 150.364 5.16667V5.28571H140.503C140.478 5.14286 140.454 5 140.38 4.85714C140.331 4.71429 140.209 4.57143 140.013 4.42857C139.842 4.28571 139.573 4.19048 139.255 4.09524C138.912 4 138.472 3.95238 137.909 3.95238C137.395 3.95238 136.979 3.97619 136.661 4C136.343 4.04762 136.098 4.09524 135.902 4.16667C135.731 4.2381 135.609 4.33333 135.535 4.45238C135.486 4.57143 135.438 4.69048 135.438 4.80952V4.85714C135.438 5.02381 135.486 5.14286 135.584 5.2619C135.682 5.38095 135.854 5.47619 136.098 5.54762C136.343 5.61905 136.661 5.69048 137.101 5.7381C137.517 5.78571 138.056 5.83333 138.716 5.83333L142.118 5.92857C143.757 5.97619 145.152 6.09524 146.277 6.33333C147.403 6.54762 148.308 6.88095 149.018 7.28571C149.728 7.69048 150.217 8.21429 150.535 8.80952C150.853 9.42857 151 10.1429 151 10.9762V11.2857C151 12.0238 150.853 12.7381 150.56 13.4048C150.266 14.0952 149.679 14.6905 148.847 15.2381C148.015 15.7857 146.84 16.2143 145.348 16.5238C143.855 16.8571 141.897 17 139.499 17H136.539C134.85 17 133.382 16.9048 132.183 16.7381ZM54.8602 8.54762C58.3837 8.14286 60.586 6.47619 61.5158 3.54762V0.285714H52.9271V16.6667H61.5158V13.5238C60.6104 10.5952 58.3837 8.92857 54.8602 8.54762ZM79.9901 0.285714V7.7381L72.0621 0.285714H62.3478V3.54762C63.2776 6.47619 65.4798 8.14286 69.0034 8.54762C65.4798 8.95238 63.2776 10.619 62.3478 13.5476V16.6667H70.9609V8.47619L79.8433 16.6667H88.5788V0.285714H79.9901Z" fill="black"/>
</svg>
