<svg width="180" height="19" viewBox="0 0 180 19" fill="none" xmlns="http://www.w3.org/2000/svg">
<path d="M8.07973 18.6039C6.65046 18.3922 5.42538 18.1276 4.43364 17.7836C3.44191 17.4395 2.65435 17.0426 2.07098 16.6192C1.4876 16.1693 1.05007 15.7194 0.729217 15.243C0.43753 14.7667 0.23335 14.2904 0.145843 13.8405C0.0583374 13.3641 0 12.9142 0 12.5438V12.3585H12.0175C12.0175 12.5438 12.0467 12.7555 12.1342 12.9936C12.1925 13.2318 12.3384 13.4435 12.5717 13.6288C12.7759 13.814 13.0967 13.9993 13.5343 14.1316C13.9426 14.2639 14.526 14.3168 15.2261 14.3168C15.8094 14.3168 16.3053 14.2904 16.7137 14.211C17.122 14.1316 17.4137 14.0522 17.6471 13.9199C17.8804 13.814 18.0554 13.6817 18.1429 13.5229C18.2304 13.3641 18.2888 13.2053 18.2888 13.0466V12.9672C18.2888 12.8084 18.2596 12.6761 18.2013 12.5173C18.1429 12.3585 17.9679 12.2527 17.7346 12.1203C17.472 12.0145 17.122 11.9086 16.6262 11.8292C16.1303 11.7498 15.4594 11.6969 14.5843 11.6705L10.3549 11.5381C8.28391 11.4852 6.59212 11.2735 5.3087 10.9295C4.02528 10.5854 3.00438 10.162 2.27516 9.63276C1.54594 9.10349 1.05007 8.52129 0.787555 7.83323C0.525036 7.17164 0.379193 6.48359 0.379193 5.74261V5.5309C0.379193 4.68406 0.583374 3.91662 0.991736 3.22856C1.4001 2.54051 2.10015 1.95831 3.09188 1.48196C4.08362 1.00562 5.39621 0.635127 7.02965 0.370491C8.6631 0.105854 10.6174 0 13.0676 0H16.4803C19.1638 0 21.3807 0.158782 23.1016 0.449882C24.8226 0.740981 26.1643 1.1644 27.1561 1.69367C28.1478 2.22294 28.8187 2.83161 29.1979 3.51966C29.5771 4.20772 29.7521 4.9487 29.7521 5.74261V5.87492H17.9971C17.9679 5.71614 17.9387 5.55736 17.8512 5.39858C17.7929 5.2398 17.6471 5.08102 17.4137 4.92223C17.2095 4.76345 16.8887 4.6576 16.5095 4.55174C16.1011 4.44589 15.5761 4.39296 14.9052 4.39296C14.2927 4.39296 13.7968 4.41942 13.4176 4.44589C13.0384 4.49882 12.7467 4.55174 12.5134 4.63113C12.3092 4.71052 12.1633 4.81638 12.0758 4.9487C12.0175 5.08102 11.9592 5.21333 11.9592 5.34565V5.39858C11.9592 5.58382 12.0175 5.71614 12.1342 5.84846C12.2509 5.98078 12.455 6.08663 12.7467 6.16602C13.0384 6.24541 13.4176 6.32481 13.9426 6.37773C14.4385 6.43066 15.0802 6.48359 15.8678 6.48359L19.9222 6.58944C21.8765 6.64237 23.5391 6.77469 24.8809 7.03932C26.2227 7.2775 27.3019 7.64799 28.1478 8.09787C28.9937 8.54775 29.5771 9.12995 29.9562 9.79154C30.3354 10.4531 30.5105 11.2735 30.5105 12.1997V12.5438C30.5105 13.3641 30.3354 14.158 29.9854 14.899C29.6354 15.6665 28.9353 16.3281 27.9436 16.9367C26.9519 17.5454 25.5518 18.0217 23.7725 18.3658C21.9932 18.7362 19.6597 18.895 16.8012 18.895H13.2718C11.2299 18.895 9.50899 18.7892 8.07973 18.6039ZM41.1279 0.317563V6.35127H51.8619V0.317563H62.1001V18.5245H51.8619V12.0409H41.1279V18.5245H30.8896V0.317563H41.1279ZM130.792 5.39858H116.675V6.82761H130.617V11.8292H116.675V13.3906H130.88V18.5245H106.582V0.317563H130.792V5.39858ZM139.018 18.5245V0.317563H149.256V18.5245H139.018ZM157.569 18.6039C156.14 18.3922 154.915 18.1276 153.923 17.7836C152.931 17.4395 152.144 17.0426 151.561 16.6192C150.977 16.1693 150.54 15.7194 150.219 15.243C149.927 14.7667 149.723 14.2904 149.635 13.8405C149.548 13.3641 149.49 12.9407 149.49 12.5438V12.3585H161.507C161.507 12.5438 161.536 12.7555 161.624 12.9936C161.682 13.2318 161.828 13.4435 162.061 13.6288C162.265 13.814 162.586 13.9993 163.024 14.1316C163.432 14.2639 164.016 14.3168 164.716 14.3168C165.299 14.3168 165.795 14.2904 166.203 14.211C166.612 14.1316 166.903 14.0522 167.137 13.9199C167.37 13.814 167.545 13.6817 167.632 13.5229C167.72 13.3641 167.778 13.2053 167.778 13.0466V12.9672C167.778 12.8084 167.749 12.6761 167.691 12.5173C167.632 12.3585 167.457 12.2527 167.224 12.1203C166.962 12.0145 166.612 11.9086 166.116 11.8292C165.62 11.7498 164.949 11.6969 164.074 11.6705L159.844 11.5381C157.773 11.4852 156.082 11.2735 154.798 10.9295C153.515 10.5854 152.494 10.162 151.765 9.63276C151.035 9.10349 150.54 8.52129 150.277 7.83323C150.015 7.17164 149.869 6.48359 149.869 5.74261V5.5309C149.869 4.68406 150.073 3.91662 150.481 3.22856C150.89 2.54051 151.59 1.95831 152.581 1.48196C153.573 1.00562 154.886 0.635127 156.519 0.370491C158.094 0.132318 160.136 0 162.557 0H165.97C168.653 0 170.87 0.158782 172.591 0.449882C174.312 0.740981 175.654 1.1644 176.646 1.69367C177.637 2.22294 178.308 2.83161 178.687 3.51966C179.067 4.20772 179.242 4.9487 179.242 5.74261V5.87492H167.487C167.457 5.71614 167.428 5.55736 167.341 5.39858C167.282 5.2398 167.137 5.08102 166.903 4.92223C166.699 4.76345 166.378 4.6576 165.999 4.55174C165.591 4.44589 165.066 4.39296 164.395 4.39296C163.782 4.39296 163.286 4.41942 162.907 4.44589C162.528 4.49882 162.236 4.55174 162.003 4.63113C161.799 4.71052 161.653 4.81638 161.565 4.9487C161.507 5.08102 161.449 5.21333 161.449 5.34565V5.39858C161.449 5.58382 161.507 5.71614 161.624 5.84846C161.74 5.98078 161.945 6.08663 162.236 6.16602C162.528 6.24541 162.907 6.32481 163.432 6.37773C163.928 6.43066 164.57 6.48359 165.357 6.48359L169.412 6.58944C171.366 6.64237 173.029 6.77469 174.37 7.03932C175.712 7.2775 176.791 7.64799 177.637 8.09787C178.483 8.54775 179.067 9.12995 179.446 9.79154C179.825 10.4796 180 11.2735 180 12.1997V12.5438C180 13.3641 179.825 14.158 179.475 14.899C179.125 15.6665 178.425 16.3281 177.433 16.9367C176.441 17.5454 175.041 18.0217 173.262 18.3658C171.483 18.7362 169.149 18.895 166.291 18.895H162.761C160.749 18.895 158.999 18.7892 157.569 18.6039ZM65.3962 9.50044C69.5965 9.05056 72.2217 7.19811 73.3301 3.94308V0.317563H63.0919V18.5245H73.3301V15.0313C72.2509 11.7763 69.5965 9.92386 65.3962 9.50044ZM95.3525 0.317563V8.60068L85.9018 0.317563H74.3218V3.94308C75.4302 7.19811 78.0554 9.05056 82.2557 9.50044C78.0554 9.95032 75.4302 11.8028 74.3218 15.0578V18.5245H84.5892V9.42105L95.1774 18.5245H105.591V0.317563H95.3525Z" fill="white"/>
</svg>
