<svg width="600" height="80" viewBox="0 0 600 80" fill="none" xmlns="http://www.w3.org/2000/svg">
<rect width="600" height="80" fill="#F19FB9"/>
<path d="M218.08 49.6039C216.65 49.3922 215.425 49.1276 214.434 48.7836C213.442 48.4395 212.654 48.0426 212.071 47.6192C211.488 47.1693 211.05 46.7194 210.729 46.243C210.438 45.7667 210.233 45.2904 210.146 44.8405C210.058 44.3641 210 43.9142 210 43.5438V43.3585H222.018C222.018 43.5438 222.047 43.7555 222.134 43.9936C222.193 44.2318 222.338 44.4435 222.572 44.6288C222.776 44.814 223.097 44.9993 223.534 45.1316C223.943 45.2639 224.526 45.3168 225.226 45.3168C225.809 45.3168 226.305 45.2904 226.714 45.211C227.122 45.1316 227.414 45.0522 227.647 44.9199C227.88 44.814 228.055 44.6817 228.143 44.5229C228.23 44.3641 228.289 44.2053 228.289 44.0466V43.9672C228.289 43.8084 228.26 43.6761 228.201 43.5173C228.143 43.3585 227.968 43.2527 227.735 43.1203C227.472 43.0145 227.122 42.9086 226.626 42.8292C226.13 42.7498 225.459 42.6969 224.584 42.6705L220.355 42.5381C218.284 42.4852 216.592 42.2735 215.309 41.9295C214.025 41.5854 213.004 41.162 212.275 40.6328C211.546 40.1035 211.05 39.5213 210.788 38.8332C210.525 38.1716 210.379 37.4836 210.379 36.7426V36.5309C210.379 35.6841 210.583 34.9166 210.992 34.2286C211.4 33.5405 212.1 32.9583 213.092 32.482C214.084 32.0056 215.396 31.6351 217.03 31.3705C218.663 31.1059 220.617 31 223.068 31H226.48C229.164 31 231.381 31.1588 233.102 31.4499C234.823 31.741 236.164 32.1644 237.156 32.6937C238.148 33.2229 238.819 33.8316 239.198 34.5197C239.577 35.2077 239.752 35.9487 239.752 36.7426V36.8749H227.997C227.968 36.7161 227.939 36.5574 227.851 36.3986C227.793 36.2398 227.647 36.081 227.414 35.9222C227.21 35.7635 226.889 35.6576 226.509 35.5517C226.101 35.4459 225.576 35.393 224.905 35.393C224.293 35.393 223.797 35.4194 223.418 35.4459C223.038 35.4988 222.747 35.5517 222.513 35.6311C222.309 35.7105 222.163 35.8164 222.076 35.9487C222.018 36.081 221.959 36.2133 221.959 36.3457V36.3986C221.959 36.5838 222.018 36.7161 222.134 36.8485C222.251 36.9808 222.455 37.0866 222.747 37.166C223.038 37.2454 223.418 37.3248 223.943 37.3777C224.439 37.4307 225.08 37.4836 225.868 37.4836L229.922 37.5894C231.877 37.6424 233.539 37.7747 234.881 38.0393C236.223 38.2775 237.302 38.648 238.148 39.0979C238.994 39.5478 239.577 40.1299 239.956 40.7915C240.335 41.4531 240.51 42.2735 240.51 43.1997V43.5438C240.51 44.3641 240.335 45.158 239.985 45.899C239.635 46.6665 238.935 47.3281 237.944 47.9367C236.952 48.5454 235.552 49.0217 233.772 49.3658C231.993 49.7362 229.66 49.895 226.801 49.895H223.272C221.23 49.895 219.509 49.7892 218.08 49.6039ZM251.128 31.3176V37.3513H261.862V31.3176H272.1V49.5245H261.862V43.0409H251.128V49.5245H240.89V31.3176H251.128ZM340.792 36.3986H326.675V37.8276H340.617V42.8292H326.675V44.3906H340.88V49.5245H316.582V31.3176H340.792V36.3986ZM349.018 49.5245V31.3176H359.256V49.5245H349.018ZM367.569 49.6039C366.14 49.3922 364.915 49.1276 363.923 48.7836C362.931 48.4395 362.144 48.0426 361.561 47.6192C360.977 47.1693 360.54 46.7194 360.219 46.243C359.927 45.7667 359.723 45.2904 359.635 44.8405C359.548 44.3641 359.49 43.9407 359.49 43.5438V43.3585H371.507C371.507 43.5438 371.536 43.7555 371.624 43.9936C371.682 44.2318 371.828 44.4435 372.061 44.6288C372.265 44.814 372.586 44.9993 373.024 45.1316C373.432 45.2639 374.016 45.3168 374.716 45.3168C375.299 45.3168 375.795 45.2904 376.203 45.211C376.612 45.1316 376.903 45.0522 377.137 44.9199C377.37 44.814 377.545 44.6817 377.632 44.5229C377.72 44.3641 377.778 44.2053 377.778 44.0466V43.9672C377.778 43.8084 377.749 43.6761 377.691 43.5173C377.632 43.3585 377.457 43.2527 377.224 43.1203C376.962 43.0145 376.612 42.9086 376.116 42.8292C375.62 42.7498 374.949 42.6969 374.074 42.6705L369.844 42.5381C367.773 42.4852 366.082 42.2735 364.798 41.9295C363.515 41.5854 362.494 41.162 361.765 40.6328C361.035 40.1035 360.54 39.5213 360.277 38.8332C360.015 38.1716 359.869 37.4836 359.869 36.7426V36.5309C359.869 35.6841 360.073 34.9166 360.481 34.2286C360.89 33.5405 361.59 32.9583 362.581 32.482C363.573 32.0056 364.886 31.6351 366.519 31.3705C368.094 31.1323 370.136 31 372.557 31H375.97C378.653 31 380.87 31.1588 382.591 31.4499C384.312 31.741 385.654 32.1644 386.646 32.6937C387.637 33.2229 388.308 33.8316 388.687 34.5197C389.067 35.2077 389.242 35.9487 389.242 36.7426V36.8749H377.487C377.457 36.7161 377.428 36.5574 377.341 36.3986C377.282 36.2398 377.137 36.081 376.903 35.9222C376.699 35.7635 376.378 35.6576 375.999 35.5517C375.591 35.4459 375.066 35.393 374.395 35.393C373.782 35.393 373.286 35.4194 372.907 35.4459C372.528 35.4988 372.236 35.5517 372.003 35.6311C371.799 35.7105 371.653 35.8164 371.565 35.9487C371.507 36.081 371.449 36.2133 371.449 36.3457V36.3986C371.449 36.5838 371.507 36.7161 371.624 36.8485C371.74 36.9808 371.945 37.0866 372.236 37.166C372.528 37.2454 372.907 37.3248 373.432 37.3777C373.928 37.4307 374.57 37.4836 375.357 37.4836L379.412 37.5894C381.366 37.6424 383.029 37.7747 384.37 38.0393C385.712 38.2775 386.791 38.648 387.637 39.0979C388.483 39.5478 389.067 40.1299 389.446 40.7915C389.825 41.4796 390 42.2735 390 43.1997V43.5438C390 44.3641 389.825 45.158 389.475 45.899C389.125 46.6665 388.425 47.3281 387.433 47.9367C386.441 48.5454 385.041 49.0217 383.262 49.3658C381.483 49.7362 379.149 49.895 376.291 49.895H372.761C370.749 49.895 368.999 49.7892 367.569 49.6039ZM275.396 40.5004C279.596 40.0506 282.222 38.1981 283.33 34.9431V31.3176H273.092V49.5245H283.33V46.0313C282.251 42.7763 279.596 40.9239 275.396 40.5004ZM305.352 31.3176V39.6007L295.902 31.3176H284.322V34.9431C285.43 38.1981 288.055 40.0506 292.256 40.5004C288.055 40.9503 285.43 42.8028 284.322 46.0578V49.5245H294.589V40.421L305.177 49.5245H315.591V31.3176H305.352Z" fill="white"/>
</svg>
